<svg xmlns="http://www.w3.org/2000/svg" width="21.529" height="29.06" viewBox="0 0 21.529 29.06">
  <path id="Path_3" data-name="Path 3" d="M584.134,694.151a4.538,4.538,0,0,0-.915,8.984,3.5,3.5,0,0,1-1.751,2.737,9.579,9.579,0,0,1-4.236,1.518,7.339,7.339,0,0,0-4.7,2.595V699a4.538,4.538,0,1,0-1.816-.026v11.112a4.568,4.568,0,0,0-2.445,1.447,4.536,4.536,0,1,0,5.961-.772,5.653,5.653,0,0,1,3.315-1.583,11.25,11.25,0,0,0,5.021-1.868,5.3,5.3,0,0,0,2.465-4.171,4.54,4.54,0,0,0-.9-8.99Zm-15.179.389a2.724,2.724,0,1,1,2.724,2.724A2.724,2.724,0,0,1,568.955,694.541Zm5.449,19.979a2.724,2.724,0,1,1-2.724-2.724A2.724,2.724,0,0,1,574.4,714.519Zm9.73-13.1a2.724,2.724,0,1,1,2.724-2.724A2.724,2.724,0,0,1,584.134,701.416Z" transform="translate(-567.139 -690)"/>
</svg>
