<svg xmlns="http://www.w3.org/2000/svg" width="22.747" height="21.395" viewBox="0 0 22.747 21.395">
  <g id="Group_7" data-name="Group 7" transform="translate(-207 -209.555)">
    <path id="Path_51" data-name="Path 51" d="M216.177,209.555h-8.072A1.182,1.182,0,0,0,207,210.8v7.148a1.183,1.183,0,0,0,1.106,1.247h8.072a1.183,1.183,0,0,0,1.106-1.247V210.8A1.183,1.183,0,0,0,216.177,209.555Z" fill="#252228"/>
    <path id="Path_52" data-name="Path 52" d="M263.3,209.555h-8.072a1.182,1.182,0,0,0-1.106,1.247v7.148a1.183,1.183,0,0,0,1.106,1.247H263.3a1.182,1.182,0,0,0,1.105-1.247V210.8A1.182,1.182,0,0,0,263.3,209.555Z" transform="translate(-34.659)" fill="#252228"/>
    <path id="Path_53" data-name="Path 53" d="M216.177,253.993h-8.072A1.182,1.182,0,0,0,207,255.239v7.149a1.182,1.182,0,0,0,1.106,1.246h8.072a1.182,1.182,0,0,0,1.106-1.246v-7.149A1.182,1.182,0,0,0,216.177,253.993Z" transform="translate(0 -32.684)" fill="#252228"/>
    <path id="Path_54" data-name="Path 54" d="M263.3,253.993h-8.072a1.182,1.182,0,0,0-1.106,1.246v7.149a1.182,1.182,0,0,0,1.106,1.246H263.3a1.182,1.182,0,0,0,1.105-1.246v-7.149A1.182,1.182,0,0,0,263.3,253.993Z" transform="translate(-34.659 -32.684)" fill="#252228"/>
  </g>
</svg>
