<svg xmlns="http://www.w3.org/2000/svg" width="16.331" height="15.517" viewBox="0 0 16.331 15.517">
  <g id="Group_6" data-name="Group 6" transform="translate(-54.488 -100.525)">
    <path id="Path_685" data-name="Path 685" d="M145.055,166.943c.041-.011.03.03.06.03,0,.078-.014.138-.091.136,0,.047.036.085,0,.121C144.878,167.188,145.062,167.039,145.055,166.943Z" transform="translate(-83.367 -61.195)" fill-rule="evenodd"/>
    <path id="Path_686" data-name="Path 686" d="M147.8,168.109c.048,0,.115-.015.106.045s-.06.041-.106.045Z" transform="translate(-85.978 -62.271)" fill-rule="evenodd"/>
    <path id="Path_687" data-name="Path 687" d="M145.8,169.654c.042.047.128.118.09.2-.042,0-.041-.049-.075-.06-.044.011-.029.082-.091.075C145.676,169.777,145.769,169.714,145.8,169.654Z" transform="translate(-84.051 -63.694)" fill-rule="evenodd"/>
    <path id="Path_688" data-name="Path 688" d="M148.365,169.654h.06a.1.1,0,0,1-.015.075C148.363,169.736,148.362,169.7,148.365,169.654Z" transform="translate(-86.496 -63.694)" fill-rule="evenodd"/>
    <path id="Path_689" data-name="Path 689" d="M187.447,184.039a.427.427,0,0,0-.045.181C187.286,184.211,187.354,184.02,187.447,184.039Z" transform="translate(-122.409 -76.947)" fill-rule="evenodd"/>
    <path id="Path_690" data-name="Path 690" d="M186.592,186.741h.045c.013.058.028.117-.045.121C186.562,186.832,186.582,186.776,186.592,186.741Z" transform="translate(-121.705 -79.438)" fill-rule="evenodd"/>
    <path id="Path_691" data-name="Path 691" d="M141.849,247.413c.069,0,.143.06.106.121C141.907,247.505,141.857,247.48,141.849,247.413Z" transform="translate(-80.493 -135.341)" fill-rule="evenodd"/>
    <path id="Path_692" data-name="Path 692" d="M136.872,247.99c.055.025.064.1.136.106,0,.045-.039.051-.045.091a.208.208,0,0,1-.121-.151C136.834,248,136.871,248.014,136.872,247.99Z" transform="translate(-75.879 -135.872)" fill-rule="evenodd"/>
    <path id="Path_693" data-name="Path 693" d="M146.456,247.99a.621.621,0,0,0,.211.075.341.341,0,0,1-.03.091C146.564,248.114,146.48,248.081,146.456,247.99Z" transform="translate(-84.738 -135.872)" fill-rule="evenodd"/>
    <path id="Path_694" data-name="Path 694" d="M138.81,251.445c.061,0,.065.056.06.121-.064-.016-.142.049-.211.075,0,.058.07.041.06.106-.095.019-.069-.082-.136-.091.031-.054.027-.076.015-.151C138.682,251.484,138.774,251.531,138.81,251.445Z" transform="translate(-77.485 -139.056)" fill-rule="evenodd"/>
    <path id="Path_695" data-name="Path 695" d="M141.141,253.812c-.031.03-.03-.007-.06-.015C141.084,253.753,141.153,253.761,141.141,253.812Z" transform="translate(-79.786 -141.197)" fill-rule="evenodd"/>
    <path id="Path_696" data-name="Path 696" d="M136.345,254.7v.06A.032.032,0,1,1,136.345,254.7Z" transform="translate(-75.382 -142.05)" fill-rule="evenodd"/>
    <path id="Path_697" data-name="Path 697" d="M129.938,263.158c.046.009.107,0,.106.06C130.012,263.243,129.931,263.22,129.938,263.158Z" transform="translate(-69.519 -149.848)" fill-rule="evenodd"/>
    <path id="Path_698" data-name="Path 698" d="M62.623,100.526c.024,0,.026.014.045.015.653,1.981,1.3,3.916,1.917,5.9,2.024,0,4.163-.01,6.234-.015a.9.9,0,0,1-.347.317c-.381.268-.788.542-1.147.845-.745.5-1.457,1.038-2.2,1.585-.3.222-.555.384-.875.634-.11.086-.4.242-.423.332a1.609,1.609,0,0,0,.121.393c.137.384.215.763.362,1.162.045.123.1.252.136.377.071.217.135.421.211.664.233.739.505,1.551.755,2.309.038.115.062.23.106.347s.091.213.121.317.038.211.076.317c-.139-.015-.23-.137-.332-.211-1.146-.84-2.292-1.643-3.471-2.505-.305-.223-.608-.44-.951-.679-.106-.074-.227-.218-.317-.211s-.368.288-.453.347c-.476.331-.951.663-1.419.981-.153.184-.412.262-.558.453-.459.275-.881.621-1.313.936-.326.237-.644.473-.966.709a1.461,1.461,0,0,1-.332.2c.621-1.98,1.273-3.929,1.917-5.886a14.159,14.159,0,0,0-1.253-.936c-.428-.3-.849-.61-1.268-.921s-.863-.6-1.283-.906c-.313-.23-.613-.461-.936-.694-.1-.07-.241-.126-.287-.257,1.916,0,4.159-.011,6.188.015.067-.019.034-.137.106-.151.242-.983.629-1.9.906-2.883.216-.764.516-1.563.755-2.34a2.83,2.83,0,0,0,.166-.513C62.6,100.547,62.623,100.545,62.623,100.526Zm-.664,5.615a.266.266,0,0,1,.03-.211c.083,0,.087.084.106.151.049,0,.064.027.121.015.006-.094-.114-.064-.06-.166-.026-.014-.075-.005-.09-.03,0-.1.1-.09.106-.181-.117-.027-.108.073-.151.121-.084.023-.046-.075-.075-.106a.4.4,0,0,0-.136.075c-.012-.01-.034-.084,0-.091.025-.027.051.013.106,0,0-.046.033-.068.045-.106a1.324,1.324,0,0,1-.181-.241c0-.047.075-.026.06-.091-.156.005-.226.1-.226.257.077.007.052-.088.136-.075.034.036-.033.055-.015.121.039.037.056-.033.106-.03,0,.072,0,.144-.075.136-.038-.043-.044-.117-.136-.106-.019.074.052.059.045.121-.089.021-.033.188-.181.151.074.084.064.173.06.3.02.015.056.014.06.045-.011.139.187.142.151.257-.1-.029-.139-.113-.211-.166.007.048-.027.053-.015.106a.168.168,0,0,1,.075.136c.053.027.078-.051.091-.015-.046.154.04.193.136.241-.017.044-.111.01-.09.09.031.023.153-.067.136.06-.061.006-.234-.043-.2.075.064,0,.081-.039.151-.03a.215.215,0,0,0,.045.106c.082-.036.049.052.151.03V107c-.037-.02-.073.034-.075,0s.033-.017.045-.03c0-.048-.034-.066-.03-.121-.022-.008-.078.018-.075-.015.007-.133-.121-.211-.075-.332.063.083.084.208.181.257-.026.014-.033.047-.03.09.083.007.109.073.166.106.022-.028.012-.088.06-.091-.055-.01-.027-.1,0-.121a.1.1,0,0,1-.136-.06c.022-.048.109-.032.151-.06-.055-.023-.093.006-.151-.03-.021.019-.007.074-.045.075s-.046-.044-.06-.075c.017-.049.088-.043.075-.121-.017-.028-.129.04-.121-.045.061-.02.09-.071.151-.09-.016-.06-.062-.153-.136-.106-.018.068.067.034.045.106-.072.022-.037-.063-.106-.045-.031,0,0,.067-.045.06a.173.173,0,0,1-.106-.106c.02,0,.014-.026.03-.03.065-.005.037.084.106.075A.149.149,0,0,1,61.959,106.141Zm.694-4.181c-.008.113-.016.333-.015.408.015.87.031,1.633.045,2.49.02,1.233.021,2.514-.015,3.653,0,.092-.075.188.045.272.525-.682,1.081-1.334,1.615-2.007-.529-1.644-1.123-3.355-1.6-4.981-.019,0-.021-.019-.045-.015A.867.867,0,0,1,62.654,101.96Zm-.362,1.9a.492.492,0,0,0-.151-.151A.26.26,0,0,0,62.291,103.861Zm-.226.03c-.009-.062-.093-.048-.121-.091C61.946,103.869,62.015,103.871,62.065,103.892ZM62,104.1c.1.047.134.158.226.211a.4.4,0,0,0-.2-.257C62.033,104.082,62,104.069,62,104.1Zm-.045.257c.018-.048.1-.033.091-.106-.012,0-.018-.013-.015-.03h-.09C61.939,104.274,61.91,104.334,61.959,104.36Zm-.075.136c.052,0,.073.038.136.03-.005-.1.113-.068.091-.181h-.045C62.062,104.452,61.929,104.429,61.884,104.5Zm-.075.211c-.038.025-.079-.008-.06.06.134.056.189-.09.272-.136.049.006.012.1.091.075.028-.051-.062-.086-.015-.166C61.945,104.556,61.9,104.642,61.808,104.707Zm.347-.015c.078.027.087-.093.06-.121A.3.3,0,0,0,62.155,104.692Zm-.287.377c.02-.065-.072-.019-.06-.076.017-.038.025-.086.06-.106.061-.006.105.006.106.06s-.056.075-.075.121c.048.023.066.005.121,0,.051.06.067.154.151.181.027-.038.093-.038.106-.091a.151.151,0,0,1-.166-.106c.011-.04.069-.032.076-.075-.029-.062-.13-.051-.151-.121.025-.067.109-.008.151,0-.09-.217-.393,0-.453.136C61.788,105.009,61.795,105.072,61.869,105.069Zm.453,0c-.006-.044-.052-.049-.075-.076C62.244,105.046,62.259,105.081,62.322,105.069Zm-.74.121c.1-.028.059.092.136.091C61.767,105.184,61.639,105.065,61.582,105.19Zm.226-.015a.071.071,0,0,0,.015.045c.043.012.039-.021.075-.015C61.912,105.148,61.831,105.151,61.808,105.175Zm.045.257c.04.01.093.007.075.075.1-.04.115.076.166.03-.019-.036-.066-.044-.06-.106.007-.043.079-.022.06-.091-.1.033-.119-.022-.226-.015C61.864,105.361,61.845,105.382,61.854,105.431Zm.423,0v-.076h-.045C62.2,105.385,62.215,105.448,62.276,105.431Zm-.815.332c.077.022.065-.046.106-.06-.015-.04-.025-.086-.075-.091C61.535,105.705,61.434,105.7,61.461,105.763Zm.77,0c.075.007.03-.089.015-.121C62.249,105.691,62.219,105.706,62.231,105.763Zm.015.166c.023.017.031.049.075.045C62.366,105.94,62.266,105.854,62.246,105.929Zm-.906.317c.024-.075-.074-.106-.09-.091C61.293,106.173,61.266,106.26,61.34,106.246Zm.151.015c.054.009.046-.045.045-.091h-.045C61.5,106.218,61.458,106.23,61.491,106.261Zm.709.136c.035-.012.015-.093-.03-.075C62.177,106.35,62.15,106.413,62.2,106.4Zm-.77.06c0-.04-.021-.05-.06-.045C61.355,106.463,61.392,106.462,61.431,106.458Zm-.121.3c.081-.01.2.02.257-.015-.029-.018-.126,0-.151-.06.048-.062.077-.145.121-.211-.022,0-.025-.025-.045-.03a.411.411,0,0,1-.106.136c.026.014.033.047.03.091C61.353,106.672,61.33,106.714,61.31,106.759Zm3.29-.121v.03c.009,0,.018,0,.015.015h.03c0-.009,0-.018.015-.015v-.03c-.009,0-.018,0-.015-.015h-.03C64.615,106.633,64.613,106.641,64.6,106.639Zm.86.121c.028,0,.033.017.06.015.015-.045.079-.041.075-.106A.194.194,0,0,0,65.461,106.759Zm-4.271-.03c.038,0,.078,0,.075-.045C61.218,106.677,61.2,106.7,61.19,106.729Zm4.045-.03a.128.128,0,0,0-.091-.015C65.127,106.743,65.234,106.744,65.234,106.7Zm.136.136c-.019-.047-.078-.133-.136-.091C65.29,106.764,65.307,106.823,65.37,106.835Zm-.709.151c.013.037.074.027.091.06,0,.049-.018.073-.06.076-.031-.014-.013-.078-.06-.076h-.045c0,.049.059.032.06.076-.029.006-.012.058-.06.045s-.019-.072-.075-.06c-.059.078.047.1.045.166-.012,0-.018.013-.015.03H64.45c.005.108.1.059.166.045.006-.1.077-.124.106-.2.067.03.234,0,.136.136-.067.012-.03-.081-.09-.075a1.453,1.453,0,0,1-.272.3c.121.056.109-.1.241-.045.03-.011,0-.084.03-.091.035.021.037.073.06.106.1.042.16-.036.226-.075a.34.34,0,0,1,.03.09.341.341,0,0,0,.091-.03c.012.063.083.068.166.06.021.048,0,.05,0,.106.012,0,.03,0,.03.015.094-.019.018-.129.121-.151a.076.076,0,0,1-.06-.075.305.305,0,0,1-.347-.045c-.031-.192.087-.235.166-.317a.217.217,0,0,0-.181-.075c-.021.066.058.032.045.091a.071.071,0,0,0-.045.015.114.114,0,0,1-.091-.091.277.277,0,0,0,.151-.166c-.078.022-.12.081-.211.09.009.072.075.1.015.166-.046,0-.117.017-.121-.03,0-.03.041-.019.03-.06-.039-.021-.1-.019-.091-.091.033-.057.113-.068.121-.151-.067-.04-.115.051-.166.075.031,0,.03.04.045.06C64.7,106.907,64.666,106.93,64.661,106.986Zm1.011-.181c.044.068.04.079,0,.151.036-.006.033.028.075.015a.439.439,0,0,0,.015-.211C65.7,106.746,65.709,106.8,65.672,106.8Zm-7.124,8c-.023-.048-.005-.066,0-.121,1.269-1.76,2.462-3.6,3.758-5.328.082-.2.3-.327.287-.574-.434-.576-.917-1.086-1.343-1.645-.086-.112-.2-.311-.3-.347a2.4,2.4,0,0,0-.483,0c-1.652,0-3.22-.021-4.679.03,1.311.395,2.619.792,3.969,1.147.291.142.687.178.981.317h.121c.518.22,1.2.3,1.705.574a8.025,8.025,0,0,1-1.026.468c-.177.074-.368.149-.528.211a7.929,7.929,0,0,1-1.026.392c-.105.1-.092.257-.136.392a3.034,3.034,0,0,0-.2.619,11.949,11.949,0,0,0-.438,1.343.74.74,0,0,0-.121.377c-.08.06-.055.227-.136.287a4.105,4.105,0,0,1-.121.5c-.029.093-.1.182-.121.272-.01.04.012.084,0,.121-.1.29-.19.559-.3.845-.033.084-.131.224-.03.3C58.41,114.9,58.451,114.773,58.548,114.8Zm6.369-8.015c-.007.047.032.048.075.045v-.06A.1.1,0,0,0,64.918,106.79Zm1.977.106a.133.133,0,0,0-.091-.106C66.829,106.831,66.828,106.9,66.895,106.9Zm-1.494.181c-.006.026.117.073.015.106-.021-.024-.053-.037-.045-.09-.061,0-.065.056-.06.121.08.029.139-.011.241,0,0-.089.086-.085.151-.106.017-.072-.057-.053-.075-.09a.835.835,0,0,0,0-.211h-.06C65.666,107.017,65.427,106.968,65.4,107.076Zm4.09-.257c-.006,0-.012.044-.015.045-.221.069-.511.146-.694.211s-.441.081-.589.151c-.031.015-.043.05-.075.06s-.076-.006-.106,0c-.112.024-.222.088-.332.121-.183.054-.367.087-.558.136-.229.058-.485.168-.74.242-.283.081-.606.179-.86.257-.567.173-1.185.335-1.736.5-.369.109-.68.169-1.041.272.044.162.29.122.377.242.583.2,1.136.424,1.706.664a2.248,2.248,0,0,0,.574.226c.1-.011.267-.188.362-.257.149-.108.3-.17.392-.241s.2-.188.317-.272c.211-.151.423-.3.619-.438.256-.186.522-.358.755-.558.055-.011.078-.053.136-.06.387-.349.861-.619,1.268-.936a1.92,1.92,0,0,0,.407-.332C69.6,106.867,69.542,106.814,69.491,106.82Zm-4.981.045c-.014.066.091.047.075-.015C64.543,106.837,64.546,106.871,64.51,106.865Zm.875.03c.009.032.093.014.106,0C65.514,106.836,65.358,106.821,65.385,106.9ZM61.4,106.88c-.015.045.034.027.06.03v-.045A.085.085,0,0,0,61.4,106.88Zm3.8.076c.03-.03.09-.031.09-.091H65.25C65.263,106.923,65.213,106.919,65.2,106.956Zm1.117-.076c0,.055.044.066.106.06A.067.067,0,0,0,66.321,106.88Zm.211.166h.075c-.022-.094.06-.107.121-.075a.1.1,0,0,0-.015-.075C66.642,106.934,66.544,106.947,66.533,107.046Zm-5.056-.015h.106c-.02-.046.056-.1-.015-.106C61.547,106.971,61.476,106.966,61.476,107.031Zm4.287-.06c0,.039.006.065.045.06.016-.039.075-.035.06-.106h-.045C65.828,106.965,65.8,106.975,65.763,106.971Zm.121.045c.019.021.066.015.106.015.021.019.015.065.015.106.1.005.073-.108.121-.151C66,106.973,65.948,106.877,65.883,107.016Zm1.087.06h.136a.128.128,0,0,0,.015-.091c-.08.011-.08.069-.136,0A.128.128,0,0,0,66.97,107.076Zm-.8.045a.082.082,0,0,0,.091.075c.023-.033.084-.17.015-.2C66.287,107.061,66.247,107.11,66.17,107.122Zm.528-.045c.02,0,.029.022.06.015,0-.04-.006-.065-.045-.06A.071.071,0,0,1,66.7,107.076Zm-2.324.076c.065-.006.09-.051.106-.106A.1.1,0,0,0,64.374,107.152Zm2.189.06c-.008-.1-.1-.125-.166-.166C66.382,107.116,66.512,107.16,66.563,107.212Zm-4.724-.076c.018.022.057.023.075.045-.009.041-.063.038-.06.091.054.007.07.051.121.06C62,107.191,61.912,107,61.838,107.137Zm.211.015a.09.09,0,0,0,.121-.03c-.012,0-.018-.013-.015-.03C62.109,107.1,62.049,107.1,62.05,107.152Zm3.562.106c-.006.052,0,.086.06.075a.2.2,0,0,1,.03-.106c.054.007.06.061.091.091,0-.043.072-.019.06-.076-.036-.015-.1,0-.091-.06s.1-.016.106-.075c-.04-.026-.1.037-.166.03C65.7,107.2,65.677,107.252,65.612,107.258Zm-3.909-.121c.036.014.04.061.106.045.012-.043-.021-.039-.015-.075C61.753,107.107,61.7,107.1,61.7,107.137Zm5.1.121c.052-.012.058.022.106.015a.344.344,0,0,0-.136-.166C66.765,107.176,66.808,107.193,66.8,107.258Zm-.921-.03c.047.017.037-.024.06-.03a.057.057,0,0,0-.06-.06Zm.2-.015h.045c0-.04-.006-.065-.045-.06Zm-4.03.06c.02,0,.029.022.06.015a.054.054,0,0,0-.045-.075C62.068,107.241,62.048,107.246,62.05,107.273Zm3.124.045c.008.061.124.057.151.015,0-.038-.024-.047-.03-.075C65.235,107.258,65.192,107.275,65.174,107.318Zm1.3,0c-.043,0-.026-.064-.075-.06C66.38,107.311,66.454,107.349,66.472,107.318Zm-1,.075a.11.11,0,0,0,.121-.015.344.344,0,0,0-.03-.091C65.494,107.28,65.495,107.347,65.476,107.393Zm-1.268.317c.016-.108.169,0,.211-.091-.01.061.115.121.121.03,0-.039-.051-.03-.091-.03,0-.118-.108-.132-.06-.257a.094.094,0,0,0-.075,0c-.041.122.073.168.03.241a1.513,1.513,0,0,1-.226-.121C64.2,107.535,64.105,107.677,64.208,107.71Zm1.328-.121c.018,0,.057.061.075.015-.054-.084.09-.1.091-.181.056-.016.043.037.091.03-.026-.077.066-.035.06-.091-.054-.029-.087,0-.151,0C65.675,107.467,65.571,107.493,65.536,107.59Zm-.679.015c0-.02.021-.029.015-.06-.02,0-.029-.021-.06-.015C64.809,107.572,64.81,107.612,64.857,107.6Zm.317.045c.021-.021.014-.091-.03-.091C65.121,107.582,65.117,107.663,65.174,107.65Zm-.5.015c.072.025.083-.087.015-.075A.1.1,0,0,0,64.676,107.665Zm.3-.03a.1.1,0,0,0,.075.015C65.062,107.589,64.991,107.6,64.978,107.635Zm-.558.151c.033,0,.007-.054.015-.075h-.045C64.4,107.739,64.369,107.8,64.419,107.786Zm.272.045c.063.017.063-.107,0-.091C64.7,107.788,64.658,107.8,64.691,107.831Zm-.121-.03v.03c.009,0,.018,0,.015.015h.03c0-.009,0-.018.015-.015v-.03c-.009,0-.018,0-.015-.015h-.03C64.585,107.795,64.583,107.8,64.57,107.8Zm-.211.166a.209.209,0,0,0,.091-.106C64.386,107.86,64.342,107.935,64.359,107.967Zm-6.279.181h.06c0-.04-.006-.065-.045-.06C58.091,108.108,58.074,108.116,58.08,108.148Zm.06.2c.095,0,.213-.048.166-.136C58.27,108.272,58.151,108.254,58.141,108.344Zm.8.06c.013-.028.056-.078,0-.091C58.945,108.34,58.9,108.389,58.941,108.4Zm-1.041-.015c0,.029.017.033.015.06.05-.005.065-.045.09-.075C57.965,108.375,57.919,108.369,57.9,108.389Zm.5.03c.034.051.061.111.151.106-.007-.084-.1-.084-.136-.136C58.409,108.4,58.412,108.419,58.4,108.42Zm.181.045h.03c.056-.019-.037-.091-.045-.045C58.581,108.422,58.58,108.444,58.578,108.465Zm-.468.03a.1.1,0,0,0,.015-.075C58.07,108.405,58.066,108.494,58.11,108.5Zm.121,0a.057.057,0,0,0,.091-.06A.058.058,0,0,0,58.231,108.5Zm.83.106c0-.012.013-.018.03-.015,0-.038,0-.078-.045-.075C59.025,108.53,59.02,108.6,59.061,108.6Zm-.951-.045c0,.043.043.038.06.06a.1.1,0,0,0,.015-.075C58.143,108.528,58.147,108.562,58.11,108.556Zm.272.091c.077-.026.079.1.136.045-.045-.02-.072-.059-.06-.136h-.045A.338.338,0,0,0,58.382,108.646Zm1.253.015c-.006-.036.028-.033.015-.075-.019,0-.021-.019-.045-.015C59.6,108.611,59.6,108.66,59.635,108.661Zm-1.057.06c.037.008.078.013.075.06-.049.042-.073.108-.181.09-.011.046.015.055.015.091.05-.005.067-.044.136-.03.034-.026.014-.107.06-.121.029.042.121.02.121.091-.018.022-.063.018-.06.06.089-.014.124.055.091.121.082,0,.106.245.181.106-.07-.031-.081-.12-.121-.181.026-.03.076-.035.06-.106-.059-.017-.1.045-.121-.015.024-.026.095-.006.091-.06-.076-.049-.188-.064-.241-.136.02-.015.056-.015.075-.03-.007-.029.021-.091-.03-.075C58.7,108.656,58.6,108.643,58.578,108.722Zm.272.015c.061.01.037-.064.09-.06s.041.07.106.06a.357.357,0,0,0-.121-.151C58.913,108.645,58.806,108.67,58.85,108.737Zm-.785-.075a.071.071,0,0,1,.015-.045c-.02,0-.029-.021-.06-.015C58.026,108.63,58.025,108.666,58.065,108.661Zm1.223.03c-.014-.026,0-.081-.045-.075C59.213,108.645,59.227,108.708,59.288,108.691Zm.226,0v-.075h-.045C59.466,108.659,59.467,108.7,59.514,108.691Zm.438.015a.07.07,0,0,1,.045.015c.021-.019.023-.074-.015-.075C59.982,108.676,59.941,108.665,59.952,108.707Zm-1.721.106c.028.03.055,0,.091,0-.014-.042.031-.142-.03-.136C58.29,108.747,58.19,108.742,58.231,108.812Zm2.068-.03c.059.024.115-.083.045-.091C60.336,108.728,60.286,108.724,60.3,108.782Zm-.408.694c-.052.012-.064-.028-.09,0a.327.327,0,0,0,.226.181c.015-.115-.158-.043-.121-.181.129-.014.063-.111.06-.211.048,0,.09-.011.091-.06-.047-.06-.129-.034-.211-.03,0-.029-.017-.033-.015-.06-.19.008-.225-.137-.347-.2-.012.057-.048.107-.015.166-.032-.054-.162-.009-.2-.06.027-.066.133-.189.091-.226a.229.229,0,0,1-.136.06c-.035-.034.005-.059,0-.106-.032-.028-.111-.01-.166-.015-.011.039-.056.091-.015.136.036,0,.044-.026.09-.015,0,.067.09.051.106.106-.02.056-.117.063-.075.136.107-.09.213.086.347.106.045-.016.085-.115.151-.06-.026.024-.071.03-.091.06-.02.08.063.113,0,.151-.1-.028-.114-.137-.2-.181-.016.07-.115.057-.151.106.027.039.141-.01.166.03,0,.015.012.018.015.03,0,.043-.072.019-.06.075.05.071.127.115.136.226.052-.015.1-.053.121.015-.109-.006-.151.052-.241.045.017.071.074.013.106.075.068-.029.085-.083.166-.03-.006-.1.052-.139.03-.257-.029,0-.033-.017-.06-.015-.026.024-.006.095-.06.09,0-.086-.079-.1-.091-.181a.1.1,0,0,1,.075.091.472.472,0,0,1,.181-.045v-.045c-.019-.026-.072-.019-.075-.06.022,0,.025-.025.045-.03.044.007.036.065.075.075C59.814,109.285,59.966,109.386,59.891,109.476Zm-.408-.6h.045c0-.039-.006-.065-.045-.06Zm.151.06v-.075H59.59C59.56,108.887,59.574,108.95,59.635,108.933Zm.679-.045c.04.021.069.132.136.075C60.394,108.956,60.377,108.793,60.314,108.888Zm-.589.151a.128.128,0,0,0,.091.015.341.341,0,0,0,.03-.091c-.051.006-.027-.063-.075-.06C59.783,108.975,59.7,108.957,59.725,109.039Zm2.958-.091c-.03.957-.021,2.033,0,3.034,1.206.859,2.418,1.733,3.592,2.6a3.978,3.978,0,0,0,.724.5c-1.407-2.085-2.9-4.086-4.3-6.173C62.7,108.922,62.679,108.924,62.684,108.948Zm-2.6.015c.02,0,.029.022.06.015v-.06C60.11,108.915,60.1,108.941,60.088,108.963Zm-.951.076c.034-.033-.012-.052,0-.106h-.075C59.064,108.99,59.083,109.032,59.137,109.039Zm-.438.015c.011-.056-.024-.067-.075-.06C58.629,109.035,58.669,109.082,58.7,109.054Zm1.494.03c.021-.019.026-.09-.015-.091A.061.061,0,0,0,60.193,109.084Zm-1.162.09c.092-.031.053.067.136.045-.035-.051-.084-.088-.076-.181C59.007,109.019,59.036,109.114,59.031,109.174Zm1.223-.015c.057.022.029-.041.075-.03-.012.068-.061.1-.09.151.036-.006.033.028.075.015.044-.068.133-.221,0-.257A.224.224,0,0,1,60.254,109.159Zm.287-.045c.024.056.052.109.136.106-.051-.069-.037-.09-.015-.181h-.045C60.619,109.092,60.594,109.117,60.54,109.114Zm-1.721.136c.031-.033.039-.127-.03-.136C58.746,109.142,58.744,109.256,58.82,109.25Zm1.268,0h.06a.067.067,0,0,0-.06-.106A.124.124,0,0,0,60.088,109.25Zm.649.075h.06c0-.038-.023-.047-.045-.06C60.747,109.285,60.73,109.294,60.737,109.325Zm-.679-.03c.011.07.087.074.151.09v-.09C60.171,109.282,60.091,109.266,60.058,109.3Zm-.981.106c.094-.006.077.073.045.121.117.061.063-.151.091-.226C59.112,109.275,59.091,109.335,59.076,109.4Zm1.343,0c.029-.007.091.02.076-.03H60.42Zm-1.147.06c.02,0,.029.022.06.015v-.045C59.3,109.427,59.276,109.435,59.273,109.461Zm.83.181c.088-.044.034-.228-.076-.211C60.038,109.515,60.135,109.515,60.1,109.642Zm.151-.181c.025.011.069.08.106.03C60.343,109.461,60.28,109.391,60.254,109.461Zm-.483.332c.029,0,.011.05.045.045a.1.1,0,0,0,.015-.076C59.8,109.759,59.774,109.767,59.771,109.793Zm4.92.483a.1.1,0,0,0-.075-.015C64.605,110.343,64.69,110.354,64.691,110.276Zm.076.106a.218.218,0,0,0,.075.106C64.887,110.438,64.8,110.352,64.767,110.382Zm.528.075c-.008-.053.054-.037.045-.09h-.06C65.288,110.393,65.262,110.455,65.295,110.457Zm-.906-.045c0,.059.056.055.091.076a.128.128,0,0,0-.015-.091A.1.1,0,0,0,64.389,110.412Zm.785.06V110.4h-.06C65.107,110.449,65.118,110.483,65.174,110.472Zm.181.045c-.027-.014-.044-.036-.075-.045C65.271,110.537,65.33,110.566,65.355,110.518Zm-.86,0a.087.087,0,0,0,.106.045v-.075A.135.135,0,0,0,64.495,110.518Zm.408.076c.01.012.09.039.075-.015C64.972,110.545,64.9,110.564,64.9,110.593Zm.106.06v.076c.128-.014-.018.158.106.136v-.121c.048.013.047-.024.075-.03-.037-.061.015-.073.015-.136C65.1,110.565,65.1,110.659,65.008,110.653Zm-.226.045a.1.1,0,0,0,.075-.015c0-.034,0-.057-.03-.06C64.813,110.65,64.766,110.643,64.782,110.7Zm.438.151c.058-.027.052-.119.151-.106.012-.072-.032-.089-.091-.091C65.291,110.745,65.167,110.766,65.219,110.85Zm-.408.015h.06c.006-.065.035-.106.045-.166A.117.117,0,0,0,64.812,110.865Zm-.257-.075c.028-.029-.009-.027,0-.076H64.51C64.507,110.757,64.508,110.8,64.555,110.789Zm.015,0c0,.046-.009.1.045.09a.1.1,0,0,1,.045-.106C64.615,110.763,64.617,110.8,64.57,110.789Zm.709.347c.064-.026.134.027.181-.03.014-.085-.039-.1-.045-.166.029-.007.091.021.075-.03-.041-.03-.053-.088-.106-.106C65.354,110.913,65.176,110.988,65.28,111.136Zm-.543-.091a.283.283,0,0,0,.121-.015c-.007-.029.021-.091-.03-.076C64.84,111.029,64.729,110.978,64.736,111.046Zm.3.076c0-.012.013-.018.03-.015,0-.065-.031-.1.015-.136-.049.009-.07-.01-.106-.015C64.944,111.012,64.975,111.113,65.038,111.121Zm.091.045a.368.368,0,0,0-.166.2c.082-.014.081-.11.181-.106,0-.094.1-.189-.015-.241Zm-3.17.015c0-.022.025-.025.03-.045-.049-.016-.062-.068-.106-.091C61.849,111.1,61.941,111.133,61.959,111.182Zm2.868.015c.036,0,.044.026.09.015a.147.147,0,0,0,.015-.151h-.045C64.891,111.13,64.819,111.123,64.827,111.2Zm.724,0a.1.1,0,0,0,.076-.015c0-.029-.017-.033-.015-.06h-.06Zm-3.894-.03c.063,0,.047.074.121.06C61.773,111.167,61.7,111.1,61.657,111.167Zm.408.06h.09c0-.029.017-.033.015-.06A.126.126,0,0,0,62.065,111.227Zm3.4.015a.086.086,0,0,0,.06-.015c0-.04-.021-.05-.06-.045Zm-.121.121c.028,0,.033-.017.06-.015-.012-.059-.017-.124-.06-.151A.142.142,0,0,0,65.34,111.363Zm-3.592-.015c.056.009.056.075.121.076,0-.05-.049-.052-.045-.106.02-.045.1-.031.09-.106C61.835,111.234,61.8,111.3,61.748,111.348Zm-.181.076c-.033.013-.052.039-.106.03a.106.106,0,0,0,.06.091.172.172,0,0,1,.2-.121.359.359,0,0,1-.09-.151C61.632,111.347,61.544,111.33,61.567,111.423Zm.634-.03c-.039-.022-.038-.083-.121-.06,0,.17.245.137.241-.015C62.242,111.3,62.26,111.387,62.2,111.393Zm3.034-.03c.015-.05-.021-.05-.06-.045C65.17,111.357,65.195,111.367,65.234,111.363Zm.257.015c0,.06.065.046.06.106-.014.027-.055.025-.06.06.08.005.076-.074.181-.045v-.06c-.1.026-.122-.029-.106-.121C65.517,111.314,65.494,111.336,65.491,111.378Zm-.453.075c-.011.056.024.067.075.06v-.075A.1.1,0,0,0,65.038,111.453Zm.347.106h.076a.228.228,0,0,0-.151-.121,2.446,2.446,0,0,1-.2.242c.036,0,.044-.026.091-.015.024-.072.087-.1.121-.166h.06Zm-3.668.045c.067.044.126-.029.181-.045-.009-.031.019-.1-.015-.106C61.839,111.515,61.758,111.539,61.718,111.6Zm.332-.151H62C61.927,111.563,62.128,111.563,62.05,111.453Zm-.694.091c.034,0,.057,0,.06-.03-.02,0-.029-.021-.06-.015Zm.785.076c.04-.028.028-.1-.045-.091A.072.072,0,0,0,62.14,111.62Zm-.634.121c.017-.05.146-.08.121.03-.071.015-.126.045-.2.06-.023-.028-.081-.1-.136-.045.088.022.125.1.136.2a.228.228,0,0,1-.106,0c.012-.088-.033-.118-.106-.121v.121c.018.022.057.023.076.045-.042.1.01.152.045.211-.1.014-.071.151-.166.166,0-.019-.019-.021-.015-.045,0-.049.09-.011.075-.075-.09-.058-.016-.2-.106-.242-.019.031-.024.077-.075.076-.03-.015-.024-.067-.076-.06a.505.505,0,0,1-.106.181c.056,0,.088.033.075.106a.27.27,0,0,1,.121.06c-.018.092-.147.16-.211.076,0-.068.047-.094.075-.136-.11.011-.134-.133-.211-.106-.022.072.038.18.045.272-.029.026-.093.018-.091.075.019.057.045.106.136.091a.176.176,0,0,0,.2.121c.028-.027.018-.093.06-.106.031.019.076.024.075.075a.877.877,0,0,0-.106.045c.013.068-.035.075-.045.121.04.045.125.046.106.151h-.091c.093.116.185-.129.287-.151-.005-.035-.015-.065-.045-.075-.026.019,0,.09-.045.09-.026-.009-.089.018-.091-.015.011-.08.061-.072.03-.166.094.029.084-.047.136-.06,0,.015.012.018.015.03-.022.024-.061.03-.045.091.126-.035.138-.184.166-.317h.06c.014.077.084.1.136.136-.005.054-.023.073,0,.121.057-.008.067-.064.076-.121-.009-.026-.072,0-.076-.03-.035-.089.019-.143.045-.211-.089.007-.1.087-.181.106v-.075c.133-.007.111-.17.241-.181.031.065.137.055.166.121.022-.063.1-.07.106-.151a.431.431,0,0,1-.136-.226c-.076-.015-.053.068-.106.075-.009-.042-.016-.085-.076-.075-.05.057.025.087.03.136a.13.13,0,0,1-.106.06c-.025.076-.033.168-.121.181.008-.123.087-.175.136-.257.007-.047-.041-.04-.045-.076s.058-.032.045-.091c-.022-.024-.079-.012-.075-.06.083.017.057-.074.091-.106.067,0,.137,0,.151-.06-.057-.054-.08-.141-.151-.181-.017.083-.1.1-.166.136-.026-.017-.137-.084-.151-.015A.332.332,0,0,1,61.506,111.74Zm4.105-.136c.029-.007.091.021.075-.03h-.075Zm-.166.03v.03c.009,0,.018,0,.015.015h.03c0-.009,0-.018.015-.015v-.03c-.009,0-.018,0-.015-.015h-.03C65.46,111.629,65.459,111.637,65.446,111.635Zm-3.577.03v.106c.088-.058.214.142.3,0-.1.024-.045-.116-.121-.121C62.028,111.745,61.927,111.7,61.869,111.665Zm3.849.121c.022,0,.056-.005.06.015-.063-.006-.011.049-.015.075.077-.036.1-.051.166,0,.033-.111-.1-.183-.211-.2C65.688,111.708,65.71,111.751,65.718,111.786Zm-.136-.03c.029-.006.065-.006.06-.045a.07.07,0,0,1-.045-.015C65.592,111.715,65.575,111.724,65.582,111.755Zm-3.381.03c.074,0,.041.1.136.075-.011-.06-.089-.052-.06-.151h-.045C62.215,111.73,62.216,111.766,62.2,111.786Zm3.154-.045c-.011.066.032.078.075.09,0-.021.033-.017.045-.03A.084.084,0,0,0,65.355,111.74Zm-4.226.06c.029.006.027.043.075.03C61.209,111.784,61.135,111.75,61.129,111.8Zm4.03.06c.021-.019.023-.074-.015-.075C65.123,111.8,65.121,111.859,65.159,111.861Zm-3.471.06a.423.423,0,0,1,.332.181c.049-.06-.014-.109-.045-.136.022,0,.025-.025.045-.03.107-.013.086.171.2.106-.043-.058-.123-.078-.136-.166a.539.539,0,0,1-.392-.075C61.652,111.836,61.69,111.875,61.688,111.921Zm3.834,0c.072-.022.107.014.166-.015.012-.043-.021-.039-.015-.075C65.587,111.827,65.577,111.9,65.521,111.921Zm-4.573.015c.093-.059.071.076.166.06C61.125,111.906,60.982,111.847,60.948,111.936Zm4.392-.015c.113,0-.024.16.06.166a.637.637,0,0,0,.045-.136C65.411,111.94,65.369,111.848,65.34,111.921Zm.543.121a.144.144,0,0,0,.136,0c-.014-.059-.018-.094.015-.136h-.06C65.971,111.978,65.924,112.008,65.883,112.042Zm-.211.076c.033-.006.014-.083-.015-.076C65.645,112.052,65.618,112.132,65.672,112.118Zm.015.106c.04.021.052.069.106.075.006-.039.045-.045.045-.091-.093-.009-.013-.086-.015-.136a.071.071,0,0,1-.045-.015C65.749,112.114,65.694,112.145,65.687,112.223Zm.392-.015c.007-.047-.013-.067-.06-.06A.057.057,0,0,0,66.08,112.208Zm-.211.03h.045c0-.038.029-.047-.015-.06C65.9,112.208,65.857,112.2,65.868,112.238Zm-.317.181.045-.045c-.009-.038-.048-.122-.091-.076C65.538,112.322,65.513,112.4,65.551,112.419Zm.513,0c0-.044-.035-.056-.06-.076C66.005,112.388,66.01,112.429,66.065,112.419Zm-.362.015a.222.222,0,0,1,.166.015c-.007-.028.021-.091-.03-.075C65.81,112.435,65.708,112.341,65.7,112.434Zm-4,.045c.05,0,.075.025.136.015a.129.129,0,0,0-.015-.091C61.766,112.412,61.706,112.418,61.7,112.48Zm4.151.136c-.029-.006-.027-.043-.076-.03.006.036-.028.033-.015.075.118.064.15-.079.226-.106.043.023.065.128.136.075a.342.342,0,0,0-.257-.136C65.879,112.551,65.843,112.56,65.853,112.616Zm-5.3.3c-.067-.035-.078.058-.151.06-.011.046.042.029.03.075.047.007.034-.046.09-.03,0,.1.09.017.136.06q0,.094-.091.091c-.08-.057-.331-.035-.226-.211-.043,0-.063.028-.106.03.019.189.194.217.3.241-.068.071-.183.034-.257,0v.076c.034.012.082.009.091.045-.026.014-.033.047-.03.091.07-.01.046.075.121.06.066-.11.173-.179.226-.3a.2.2,0,0,0,.166-.121c-.037-.008-.078-.013-.076-.06.046.011.044-.026.091-.015q.016-.092-.075-.076c-.026.009,0,.072-.03.076-.047.007-.048-.032-.045-.076l.136-.045c.009-.074-.055-.076-.106-.091-.032.024-.026.084-.06.106-.014-.027-.056-.025-.06-.06.02-.056.082-.069.091-.136a.509.509,0,0,1-.166-.136c.017.122-.07.152-.106.257.076.016.076-.045.121-.06.014.031.031.06.045.091,0,.036-.052.028-.045.075.064-.014.076.025.091.06-.02,0-.014.026-.03.03C60.566,113.008,60.558,112.96,60.556,112.918Zm5.132-.241c0-.04-.006-.065-.045-.06C65.638,112.655,65.647,112.681,65.687,112.676Zm.151.136h.03c0,.009,0,.018.015.015q.014-.084.121-.075c.013.033.039.051.03.106.065-.046.067,0,.151,0,0-.058-.045-.067-.09-.045a.167.167,0,0,0-.181-.121C65.918,112.76,65.848,112.757,65.838,112.812Zm-4.377.106c.044.03.105-.029.121-.076C61.533,112.808,61.485,112.879,61.461,112.918Zm4.528.121a.145.145,0,0,0,.121-.06c-.064-.006-.063-.078-.136-.076C65.975,112.965,66.026,112.977,65.989,113.038Zm.3.015c.029-.048-.009-.076.015-.136C66.2,112.9,66.257,113.032,66.291,113.053Zm-5.4-.075v.06c.019.021.066.015.106.015.011-.046-.015-.055-.015-.091A.128.128,0,0,0,60.888,112.978Zm.136.272c.007-.053-.048-.122-.09-.075C60.989,113.173,60.97,113.248,61.023,113.25Zm-.8.075c.042-.065-.016-.139-.106-.121C60.139,113.259,60.15,113.323,60.223,113.325Zm.74-.015c-.01-.05-.077-.044-.075-.106h-.075C60.825,113.271,60.9,113.339,60.963,113.31Zm-.966.06c-.019-.047-.09-.04-.121-.076C59.867,113.369,59.938,113.364,60,113.37Zm.755,0a.071.071,0,0,0,.106-.03C60.815,113.343,60.754,113.327,60.752,113.37Zm-.664.121c.029.006.012.059.06.045.048.007.006-.075.06-.06a.1.1,0,0,0,.015.075c.1,0,.086-.154.015-.181C60.195,113.417,60.126,113.439,60.088,113.491Zm-.121.076c.031-.008.108-.1.03-.121C59.962,113.452,59.925,113.533,59.967,113.567Zm.106.392c-.041-.066.043-.138.075-.181.006-.036-.069.008-.045-.045,0-.017.017-.024.03-.03s.034.026.03.06c.036-.015.1,0,.09-.06-.1.026-.105-.046-.136-.09a.143.143,0,0,0-.121.136c0,.039.059.022.06.06a.2.2,0,0,1-.151.09C59.9,113.968,60.067,113.949,60.073,113.959Zm6.264-.241c.046,0,.038-.053.045-.09-.028.014-.05-.045-.06,0C66.359,113.648,66.348,113.679,66.336,113.717Zm-6.46.03c.021-.02.029-.105-.015-.106C59.841,113.662,59.832,113.747,59.876,113.748Zm-.121.181c.046.008.094.155.121.045-.009-.031-.076,0-.06-.06.052-.039.123-.058.151-.121-.015-.025-.064-.016-.091-.03A.888.888,0,0,0,59.756,113.929Zm-.121.2c.007-.078-.021-.12-.09-.121C59.549,114.07,59.6,114.088,59.635,114.125Zm.121.06c.037-.012.014-.121.015-.151h-.045C59.728,114.093,59.714,114.167,59.756,114.185Zm-.136.091c.038,0,.047-.023.06-.045-.021,0-.029-.021-.06-.015Zm-.226.091a.1.1,0,0,0-.015-.076h-.045C59.327,114.343,59.338,114.377,59.393,114.367Zm-.241.181h.06A.032.032,0,1,0,59.152,114.548Zm-.272.2c.01-.065-.035-.076-.075-.091C58.81,114.7,58.85,114.719,58.88,114.744Z" transform="translate(0 0)" fill-rule="evenodd"/>
  </g>
</svg>
