<svg xmlns="http://www.w3.org/2000/svg" width="20.673" height="24.064" viewBox="0 0 20.673 24.064">
  <path id="Path_1" data-name="Path 1" d="M1090.7,1021.714a1.808,1.808,0,1,0,2.812-2.274l-1.216-1.5-4.015-4.965a1.625,1.625,0,0,1-.593.17c-.32.029-.57.077-.7.378a1.481,1.481,0,0,0-.1.477,4.257,4.257,0,0,1-.67,2.177l4.481,5.54Zm1.532-18.059a2.1,2.1,0,0,0-.708.587l-4.375,5.667.891.688a.9.9,0,0,1,.16,1.256c-.619.8-1.008-.192-1.685.684-1.166,1.51.013,1.766-1.475,3.694l-4.339,5.62a3.038,3.038,0,0,1-4.81-3.714l4.339-5.62c1.488-1.928,2.035-.852,3.2-2.362.668-.865-.366-1.01.242-1.8a.9.9,0,0,1,1.256-.163l.884.683,4.375-5.667a2.1,2.1,0,0,0,.389-.833l.149-.68a1.158,1.158,0,0,1,.452-.69l2.06-1.492,1.089.841-.921,2.371a1.158,1.158,0,0,1-.554.613l-.62.316Zm-14.757,16.36,4.171-5.4a.483.483,0,1,0-.764-.59l-4.171,5.4a.483.483,0,1,0,.764.59Zm1.743,1.346,4.171-5.4a.483.483,0,1,0-.764-.59l-4.171,5.4a.483.483,0,1,0,.764.59Zm4.485-14.232c-1.05-2.187.464-4.164-1.4-6.421a4.35,4.35,0,0,0-4.744-1.561.643.643,0,0,0-.253,1.1l2.011,1.782a.69.69,0,0,1,.059.97l-1.5,1.7a.69.69,0,0,1-.971.058l-2.129-1.887a.642.642,0,0,0-1.058.366,4.382,4.382,0,0,0,1.008,3.605c2.107,2.606,4.66.888,6.718,3.433.043.053.32-.091.386-.114a1.338,1.338,0,0,0,.564-.333c.122-.123.129-.332.08-.609a1.805,1.805,0,0,1,.392-1.458,1.959,1.959,0,0,1,.835-.628Zm8.871,12.9a.708.708,0,1,1-1-.105A.708.708,0,0,1,1092.569,1020.03Z" transform="translate(-1073.648 -998.966)" fill="#181a1c" fill-rule="evenodd"/>
</svg>
